# xmcd CD database file
#
# Track frame offsets:
#	150
#	9569
#	23554
#	36461
#	49108
#	58001
#	71570
#	78491
#	91697
#	106834
#	112332
#	129050
#	138567
#	154129
#	163470
#	177320
#	191271
#	209872
#	223433
#	232377
#	247628
#	274814
#	289244
#	297502
#	309053
#	314210
#	320218
#
# Disc length: 4433 seconds
#
# Revision: 0
# Processed by: cddbd v1.5.2PL0 Copyright (c) Steve Scherf et al.
# Submitted via: Feurio! 1.68 - http://www.feurio.com
#
DISCID=a6114f1b
DTITLE=Wise Guys - Live
DYEAR=2000
DGENRE=
TTITLE0=Gedanken Vor Konzertbeginn
TTITLE1=Skandal
TTITLE2=Moderation
TTITLE3=Köln ist einfach Korrekt
TTITLE4=Moderation
TTITLE5=Baby noch einmal
TTITLE6=Moderation
TTITLE7=Wie kann es sein
TTITLE8=Es blieb von unserem Glück nur Dein Parfum zurück
TTITLE9=Moderation
TTITLE10=Goldeneye
TTITLE11=Moderation
TTITLE12=Meine heisse Liebe
TTITLE13=Moderation
TTITLE14=Mädchen lach noch mal
TTITLE15=Root Beer Rag
TTITLE16=Moderation
TTITLE17=Probier's mal mit 'nem Bass
TTITLE18=Moderation
TTITLE19=Nein, Nein, Nein
TTITLE20=Moderation
TTITLE21=Verlieben, verloren,...
TTITLE22=Moderation
TTITLE23=Ich will keine A-Capella
TTITLE24=Moderation
TTITLE25=Wenn ich Ens Nit Mih Existiere
TTITLE26=Zu schön für diese Welt
EXTD=
EXTT0=
EXTT1=
EXTT2=
EXTT3=
EXTT4=
EXTT5=
EXTT6=
EXTT7=
EXTT8=
EXTT9=
EXTT10=
EXTT11=
EXTT12=
EXTT13=
EXTT14=
EXTT15=
EXTT16=
EXTT17=
EXTT18=
EXTT19=
EXTT20=
EXTT21=
EXTT22=
EXTT23=
EXTT24=
EXTT25=
EXTT26=(Studio Version)
PLAYORDER=
